<?xml version="1.0" standalone="no"?>
<!DOCTYPE svg PUBLIC "-//W3C//DTD SVG 20010904//EN"
 "http://www.w3.org/TR/2001/REC-SVG-20010904/DTD/svg10.dtd">
<svg version="1.0" xmlns="http://www.w3.org/2000/svg"
 width="1456.000000pt" height="1456.000000pt" viewBox="0 0 1456.000000 1456.000000"
 preserveAspectRatio="xMidYMid meet">
<metadata>
Created by potrace 1.14, written by Peter Selinger 2001-2017
</metadata>
<g transform="translate(0.000000,1456.000000) scale(0.100000,-0.100000)"
fill="#000000" stroke="none">
<path d="M6224 11800 c-5 -4 -26 -18 -46 -29 -57 -32 -97 -55 -156 -90 -29
-17 -57 -31 -62 -31 -6 0 -10 -4 -10 -10 0 -5 -4 -10 -10 -10 -5 0 -44 -20
-86 -45 -41 -25 -77 -45 -79 -45 -2 0 -33 -18 -69 -40 -36 -22 -70 -40 -76
-40 -5 0 -10 -3 -10 -7 0 -5 -10 -13 -23 -18 -32 -16 -111 -59 -117 -65 -3 -3
-16 -11 -30 -18 -40 -21 -82 -45 -158 -90 -39 -23 -75 -42 -80 -42 -6 0 -12
-3 -14 -7 -4 -10 -444 -263 -457 -263 -5 0 -11 -3 -13 -8 -4 -9 -147 -92 -159
-92 -5 0 -9 -5 -9 -11 0 -5 -4 -7 -10 -4 -5 3 -10 1 -10 -4 0 -6 -5 -11 -10
-11 -6 0 -35 -16 -65 -35 -30 -19 -55 -33 -55 -30 0 2 -36 -18 -81 -45 -44
-28 -82 -50 -85 -50 -2 0 -23 -12 -47 -27 -23 -15 -60 -37 -82 -48 -22 -12
-59 -33 -81 -46 -23 -13 -170 -98 -328 -189 -158 -91 -299 -172 -314 -181 -15
-9 -76 -44 -137 -79 -123 -70 -119 -68 -302 -174 -73 -42 -137 -76 -142 -76
-6 0 -14 -8 -20 -17 -5 -10 -11 -16 -13 -13 -2 2 -46 -20 -98 -50 -52 -30
-107 -62 -122 -70 -24 -13 -90 -52 -193 -112 -16 -10 -52 -30 -80 -44 -27 -14
-57 -32 -65 -39 -8 -7 -40 -25 -70 -41 -30 -15 -66 -36 -80 -45 -14 -9 -50
-30 -80 -47 -30 -16 -105 -59 -166 -94 -61 -36 -117 -68 -125 -71 -8 -4 -30
-17 -49 -29 -77 -47 -136 -79 -152 -85 -10 -3 -18 -9 -18 -14 0 -5 -4 -9 -9
-9 -8 0 -412 -229 -436 -247 -6 -4 -35 -21 -65 -37 -30 -16 -62 -34 -70 -41
-8 -7 -30 -18 -48 -26 -17 -8 -32 -17 -32 -21 0 -5 -4 -8 -9 -8 -5 0 -62 -31
-127 -70 -66 -38 -131 -75 -146 -81 -16 -6 -28 -15 -28 -21 0 -5 -4 -7 -9 -4
-5 3 -14 -1 -21 -9 -7 -8 -16 -15 -20 -15 -5 0 -44 -21 -87 -47 -43 -25 -94
-55 -113 -65 -19 -10 -42 -23 -50 -28 -48 -30 -153 -90 -159 -90 -3 0 -14 -7
-25 -15 -22 -16 -12 -30 39 -55 28 -14 211 -119 245 -141 8 -5 26 -15 40 -21
14 -7 27 -15 30 -18 3 -3 16 -11 30 -19 14 -8 78 -45 143 -83 66 -37 123 -68
127 -68 5 0 10 -4 12 -8 2 -7 102 -66 158 -95 8 -4 29 -16 45 -27 17 -11 44
-26 60 -35 17 -8 44 -23 60 -34 17 -10 46 -27 65 -38 77 -45 166 -96 185 -108
11 -7 25 -13 30 -15 6 -1 29 -15 52 -31 23 -16 44 -29 46 -29 4 0 374 -213
417 -240 40 -25 126 -74 130 -75 3 0 16 -8 30 -16 69 -44 184 -109 191 -109 5
0 9 -4 9 -8 0 -5 16 -14 35 -22 19 -8 35 -18 35 -22 0 -9 41 12 242 128 70 41
142 82 160 92 18 11 74 43 123 72 50 29 108 62 130 75 22 12 69 40 105 60 36
21 75 43 87 49 13 6 23 14 23 19 0 4 6 7 13 7 6 0 41 18 77 40 36 22 90 53
120 70 30 16 78 43 105 60 28 17 61 35 75 41 13 6 27 13 30 17 5 7 13 12 99
60 25 14 58 32 73 41 15 9 109 63 209 121 100 58 201 116 225 130 68 40 306
175 344 196 19 10 37 22 38 27 2 4 8 7 13 7 5 0 28 12 52 27 23 14 44 25 46
24 2 -2 7 1 10 6 6 8 31 22 101 60 19 10 39 24 43 31 4 6 16 12 27 12 10 0 25
6 32 13 10 10 204 124 293 171 10 6 25 17 33 24 7 7 18 10 23 7 5 -4 9 -1 9 4
0 6 7 11 15 11 8 0 15 4 15 10 0 5 11 12 25 16 14 3 25 10 25 16 0 5 4 7 9 3
5 -3 12 -1 15 4 4 5 37 26 74 47 37 20 70 42 74 48 4 6 8 8 8 4 0 -3 66 32
146 78 80 46 150 84 155 84 5 0 9 4 9 10 0 5 11 12 25 16 14 3 25 10 25 15 0
5 4 9 9 9 5 0 92 48 193 106 100 58 201 116 223 129 143 81 222 126 235 135 8
6 31 18 50 28 19 9 37 20 40 23 3 4 23 17 45 28 22 12 47 26 55 31 28 17 155
90 245 140 33 19 71 42 84 52 13 10 27 15 32 12 5 -3 9 0 9 5 0 6 5 11 12 11
6 0 19 6 27 14 9 8 41 27 71 42 30 16 60 32 65 37 11 9 96 58 180 103 28 15
52 29 55 33 6 7 33 23 93 54 23 11 44 23 47 26 3 4 25 17 50 30 25 13 52 30
61 37 8 8 19 14 22 14 4 0 89 47 188 105 100 58 186 105 190 105 5 0 9 3 9 8
0 4 10 12 23 18 54 26 112 58 117 65 3 4 26 17 53 29 26 12 47 26 47 31 0 5 3
8 8 7 4 -2 36 15 71 36 l64 39 -39 20 c-21 11 -47 26 -56 35 -10 8 -18 12 -18
8 0 -4 -13 2 -29 13 -16 12 -34 21 -40 21 -6 0 -11 4 -11 9 0 5 -8 11 -17 14
-10 4 -45 22 -78 42 -33 20 -69 40 -80 45 -23 11 -58 33 -65 40 -4 4 -29 18
-115 64 -11 6 -22 13 -25 16 -3 3 -21 14 -40 24 -81 44 -119 66 -193 110 -43
25 -82 46 -87 46 -6 0 -10 4 -10 8 0 5 -19 16 -42 27 -24 10 -45 21 -48 25 -3
4 -41 26 -85 50 -44 24 -81 47 -83 52 -2 4 -7 8 -12 8 -4 0 -94 50 -200 110
-106 61 -196 110 -200 110 -5 0 -10 3 -12 8 -3 7 -174 107 -298 175 -30 17
-58 34 -61 40 -3 5 -8 7 -10 6 -2 -2 -47 22 -99 53 -154 91 -207 117 -216 108z"/>
<path d="M7805 9229 c-16 -10 -37 -22 -45 -26 -56 -29 -156 -88 -158 -95 -2
-4 -12 -8 -22 -8 -10 0 -20 -4 -22 -8 -3 -8 -69 -47 -133 -80 -16 -9 -32 -18
-35 -22 -3 -4 -41 -26 -85 -51 -44 -24 -88 -48 -97 -54 -9 -5 -29 -17 -45 -26
-15 -9 -50 -28 -78 -44 -27 -15 -62 -36 -77 -46 -14 -11 -28 -19 -31 -19 -3 0
-40 -20 -81 -45 -42 -25 -81 -45 -86 -45 -6 0 -10 -4 -10 -10 0 -5 -4 -10 -9
-10 -6 0 -76 -39 -158 -86 -240 -140 -247 -144 -273 -157 -14 -6 -27 -14 -30
-17 -3 -4 -36 -24 -75 -45 -38 -22 -79 -45 -90 -52 -11 -7 -27 -15 -35 -19
-16 -8 -135 -78 -160 -94 -8 -6 -22 -13 -30 -17 -8 -4 -37 -20 -65 -36 -27
-17 -75 -44 -105 -60 -30 -17 -57 -33 -60 -37 -3 -3 -12 -9 -20 -12 -8 -3
-100 -56 -205 -117 -104 -61 -215 -124 -245 -141 -58 -32 -69 -38 -190 -110
-41 -24 -78 -45 -82 -45 -4 0 -15 -7 -25 -15 -10 -8 -34 -23 -53 -32 -50 -25
-94 -52 -98 -60 -2 -5 -9 -8 -16 -8 -6 0 -28 -11 -49 -25 -20 -14 -37 -22 -37
-18 0 4 -4 3 -8 -3 -8 -12 -150 -94 -163 -94 -5 0 -9 -4 -9 -9 0 -5 -8 -11
-17 -14 -10 -3 -39 -19 -65 -34 -119 -71 -223 -128 -230 -126 -4 2 -8 -1 -8
-6 0 -5 -35 -29 -77 -52 -43 -24 -91 -51 -108 -61 -16 -10 -42 -24 -57 -31
-16 -6 -28 -15 -28 -19 0 -4 -4 -8 -10 -8 -5 0 -55 -27 -110 -60 -55 -33 -105
-60 -110 -60 -6 0 -10 -4 -10 -10 0 -5 -9 -10 -19 -10 -11 0 -21 -4 -23 -9 -1
-4 -34 -25 -73 -46 -38 -21 -72 -41 -75 -44 -3 -3 -30 -19 -60 -35 -30 -16
-62 -35 -71 -42 -8 -8 -22 -14 -29 -14 -7 0 -21 -6 -29 -14 -20 -17 -208 -126
-219 -126 -4 0 -19 -11 -33 -24 l-26 -24 0 -1237 0 -1237 26 -11 c14 -6 28
-14 31 -18 3 -3 35 -21 73 -39 37 -19 67 -37 67 -42 0 -4 9 -8 20 -8 11 0 20
-3 20 -7 0 -5 10 -13 23 -18 54 -26 152 -81 155 -87 2 -5 7 -8 12 -8 7 0 89
-44 220 -118 25 -14 74 -41 110 -60 36 -19 75 -41 87 -48 29 -18 91 -52 173
-96 72 -39 132 -73 170 -97 14 -8 27 -16 30 -16 5 -1 85 -43 112 -60 9 -5 36
-21 60 -34 85 -46 155 -85 285 -157 72 -41 137 -74 142 -74 6 0 11 -4 11 -10
0 -5 5 -10 11 -10 6 0 24 -9 40 -21 16 -11 29 -18 29 -15 0 4 19 -6 43 -21 43
-27 93 -55 207 -114 35 -19 71 -40 78 -47 8 -7 17 -11 20 -8 9 10 8 146 -2
146 -5 0 -5 5 1 13 4 6 7 75 6 152 -2 77 -3 145 -3 150 0 6 0 75 0 155 0 80 0
152 0 160 0 8 0 80 0 160 0 80 0 152 0 160 0 8 0 80 0 160 0 80 0 154 0 165 0
11 0 72 1 135 0 63 0 124 -1 135 0 11 1 46 2 78 2 31 0 57 -5 57 -4 0 -5 5 -1
11 4 7 6 31 5 55 -2 54 -2 47 1 172 2 56 -1 102 -6 102 -5 0 -4 6 1 13 5 6 8
30 6 52 -3 44 -3 46 -2 127 2 61 4 65 59 95 19 11 74 43 122 72 48 28 91 51
97 51 6 0 11 5 11 10 0 6 5 10 10 10 6 0 36 16 66 35 30 19 57 35 60 35 3 0
39 20 80 45 40 25 78 45 84 45 5 0 10 5 10 12 0 6 3 9 6 5 4 -3 25 7 48 22 22
16 64 40 91 55 28 15 64 35 80 45 45 27 106 62 148 84 20 12 37 24 37 29 0 4
9 8 19 8 11 0 22 4 26 9 3 6 18 16 33 24 15 7 70 38 122 69 52 30 106 61 120
69 14 8 27 16 30 19 3 3 21 13 40 23 68 36 95 52 108 65 7 6 17 12 22 12 12 0
113 62 122 75 4 5 8 7 8 3 0 -4 41 18 92 48 50 29 100 56 110 60 10 3 18 10
18 15 0 5 4 9 9 9 5 0 75 38 156 85 80 47 150 85 156 85 5 0 9 5 9 10 0 6 4
10 9 10 8 0 121 63 181 100 8 5 42 25 75 43 33 19 116 67 185 107 69 40 136
80 150 87 14 8 48 28 75 44 28 16 60 34 73 39 12 5 28 14 35 20 12 11 268 160
273 160 2 0 43 24 91 53 48 29 95 56 103 60 8 5 24 13 35 20 11 7 52 30 90 52
39 22 82 47 96 55 14 8 59 34 100 58 41 24 81 47 89 52 8 6 94 55 190 110 96
55 182 104 190 109 8 6 95 56 194 113 98 57 190 110 205 118 14 9 56 33 94 54
65 37 83 56 52 56 -8 0 -15 3 -15 8 0 4 -10 12 -23 18 -12 5 -98 54 -192 109
-173 100 -184 106 -290 166 -33 18 -61 37 -63 41 -2 4 -7 8 -12 8 -5 0 -48 23
-97 51 -48 29 -108 63 -133 77 -25 13 -101 57 -170 97 -69 40 -141 82 -161 93
-75 42 -84 47 -99 58 -8 6 -46 28 -85 49 -38 21 -82 46 -97 56 -14 11 -31 19
-37 19 -6 0 -11 5 -11 12 0 6 -3 9 -6 5 -3 -3 -30 10 -59 29 -30 19 -59 34
-65 34 -5 0 -10 5 -10 12 0 6 -3 8 -7 5 -3 -4 -13 -1 -22 7 -9 7 -74 46 -146
86 -71 40 -174 99 -228 132 -55 32 -102 58 -107 58 -4 0 -13 7 -20 15 -7 8
-19 15 -27 15 -8 0 -21 7 -29 15 -19 18 -22 18 -59 -6z"/>
<path d="M12265 8306 c-66 -42 -81 -50 -87 -48 -5 1 -8 -2 -8 -8 0 -5 -4 -10
-9 -10 -5 0 -82 -43 -171 -95 -89 -52 -164 -95 -167 -95 -3 0 -17 -8 -31 -18
-15 -11 -52 -33 -82 -49 -30 -17 -90 -51 -133 -77 -43 -25 -82 -46 -87 -46 -6
0 -10 -4 -10 -10 0 -5 -4 -10 -10 -10 -7 0 -251 -138 -300 -170 -8 -5 -28 -16
-45 -25 -16 -8 -48 -26 -70 -40 -22 -14 -49 -30 -60 -35 -11 -6 -33 -19 -50
-29 -28 -18 -118 -70 -195 -113 -19 -11 -76 -44 -127 -74 -51 -30 -96 -54
-102 -54 -5 0 -11 -4 -13 -8 -3 -7 -165 -102 -268 -158 -19 -10 -37 -21 -40
-24 -3 -3 -16 -11 -29 -18 -50 -29 -89 -51 -175 -101 -49 -28 -93 -51 -97 -51
-5 0 -9 -4 -9 -10 0 -5 -5 -10 -11 -10 -6 0 -48 -22 -94 -50 -46 -27 -86 -50
-90 -50 -3 0 -22 -12 -41 -26 -19 -15 -34 -22 -34 -18 0 5 -4 4 -8 -1 -8 -12
-151 -95 -162 -95 -4 0 -13 -7 -20 -15 -7 -8 -16 -12 -21 -9 -5 3 -9 1 -9 -4
0 -4 -15 -16 -32 -25 -18 -9 -46 -25 -63 -35 -16 -9 -61 -35 -100 -57 -38 -21
-72 -42 -75 -45 -3 -3 -18 -12 -35 -20 -30 -15 -157 -88 -205 -118 -14 -9 -27
-15 -29 -13 -2 1 -7 -1 -10 -6 -3 -4 -17 -14 -30 -21 -61 -35 -289 -167 -316
-183 -16 -10 -39 -23 -50 -29 -11 -5 -38 -21 -60 -35 -22 -14 -47 -28 -55 -32
-8 -4 -48 -26 -88 -50 -40 -24 -77 -43 -82 -43 -6 0 -10 -4 -10 -10 0 -5 -4
-10 -9 -10 -5 0 -54 -27 -109 -59 -55 -33 -103 -57 -106 -53 -3 3 -6 1 -6 -5
0 -5 -18 -18 -40 -29 -22 -10 -40 -22 -40 -26 0 -5 -4 -8 -9 -8 -6 0 -61 -30
-123 -66 -62 -37 -137 -79 -166 -95 -47 -26 -90 -51 -147 -86 -23 -14 -186
-108 -230 -133 -17 -9 -86 -49 -153 -89 -68 -39 -127 -71 -132 -71 -6 0 -10
-3 -10 -7 0 -5 -10 -13 -23 -19 -56 -27 -142 -78 -145 -86 -2 -4 -9 -8 -16 -8
-6 0 -28 -11 -49 -25 -20 -14 -37 -22 -37 -18 0 4 -4 3 -8 -2 -8 -12 -250
-155 -262 -155 -4 0 -13 -7 -20 -15 -7 -8 -16 -12 -21 -9 -5 3 -9 0 -9 -5 0
-6 -4 -11 -9 -11 -5 0 -57 -28 -115 -63 l-105 -64 29 -21 c16 -12 32 -22 35
-22 4 0 56 -29 116 -65 60 -36 112 -65 116 -65 3 0 14 -6 22 -14 9 -7 41 -27
71 -43 30 -17 96 -54 145 -83 88 -51 127 -74 176 -102 13 -7 26 -15 29 -18 6
-6 84 -49 117 -64 13 -6 23 -14 23 -18 0 -5 5 -8 11 -8 10 0 134 -71 156 -90
7 -5 15 -10 19 -10 3 0 34 -17 68 -37 33 -21 63 -38 66 -38 3 0 16 -8 30 -16
78 -50 201 -119 210 -119 5 0 10 -4 10 -10 0 -5 5 -10 11 -10 14 0 131 -70
141 -84 4 -6 8 -8 8 -4 0 5 114 -58 220 -122 100 -60 171 -100 180 -100 5 0
10 -3 10 -7 0 -5 23 -19 50 -32 28 -14 50 -29 50 -33 0 -4 9 -8 19 -8 11 0 21
-4 23 -8 2 -4 24 -20 51 -34 l47 -27 196 115 c108 63 199 114 201 114 3 0 17
8 31 19 25 17 44 28 170 97 26 15 52 30 57 34 10 8 60 37 340 198 83 47 152
90 153 94 2 4 12 8 23 8 10 0 19 5 19 10 0 6 4 10 9 10 7 0 75 38 161 90 8 5
95 55 194 112 98 57 195 113 215 124 232 136 334 194 342 194 5 0 9 5 9 10 0
6 5 10 11 10 6 0 47 22 92 50 45 27 87 50 94 50 7 0 13 5 13 10 0 6 6 10 14
10 8 0 16 4 18 9 2 5 10 11 18 13 8 2 17 6 20 9 3 3 32 21 65 40 33 18 72 41
86 49 15 8 73 42 130 75 57 32 106 62 109 66 3 3 15 9 28 13 12 4 22 12 22 17
0 6 4 8 9 5 5 -3 20 3 34 14 14 11 29 20 34 20 5 0 14 5 21 12 12 12 101 65
152 90 14 7 48 27 77 45 29 18 54 33 57 33 2 0 72 41 156 90 84 50 153 90 155
90 2 0 70 39 155 90 8 5 79 46 158 92 79 46 158 91 175 102 18 10 55 30 82 45
28 15 68 39 90 54 22 15 45 27 52 27 7 0 13 5 13 11 0 5 4 8 9 5 5 -4 11 -3
13 2 1 4 50 34 107 67 57 33 123 71 146 85 24 14 81 47 127 73 45 26 90 52 98
57 8 5 44 27 80 47 36 21 79 46 95 56 17 9 38 20 48 23 9 4 17 10 17 15 0 5 4
9 9 9 5 0 65 32 133 71 67 39 143 83 168 97 25 13 52 30 60 37 8 6 22 15 30
18 8 4 38 20 65 37 28 16 57 33 65 37 8 4 42 23 75 42 33 20 68 40 77 46 10 5
84 48 165 95 80 47 162 94 182 105 20 11 64 37 99 58 35 20 67 37 73 37 5 0 9
5 9 10 0 6 8 10 18 10 14 0 12 4 -8 20 -14 11 -34 23 -45 26 -11 4 -27 12 -35
19 -8 7 -37 25 -65 40 -27 14 -64 35 -82 45 -18 11 -128 74 -245 141 -117 67
-224 129 -238 137 -14 9 -28 15 -32 14 -5 -1 -8 2 -8 8 0 5 -6 10 -14 10 -8 0
-16 3 -18 8 -2 4 -22 17 -45 30 -24 12 -62 32 -85 45 -24 12 -45 25 -48 28 -3
3 -32 21 -65 39 -33 18 -113 64 -177 101 -64 38 -121 69 -127 69 -6 0 -11 5
-11 10 0 6 -4 10 -10 10 -5 0 -33 14 -62 31 -58 35 -61 37 -223 129 -60 35
-122 72 -137 82 -16 11 -28 16 -28 12 0 -3 -7 0 -16 7 -9 7 -24 18 -34 24 -90
51 -135 75 -142 75 -4 0 -8 5 -8 10 0 6 -4 10 -10 10 -5 0 -44 20 -86 45 -41
25 -78 45 -82 45 -3 0 -13 6 -21 14 -25 21 -54 26 -76 12z"/>
</g>
</svg>
