<?xml version="1.0" encoding="UTF-8"?>
<svg id="Capa_2" data-name="Capa 2" xmlns="http://www.w3.org/2000/svg" viewBox="0 0 90.94 56.65">
    <defs>
        <style>
            .cls-1 {
            fill: #1249f9;
            }

            .cls-1, .cls-2 {
            stroke-width: 0px;
            }

            .cls-2 {
            fill: #375dfb;
            }
        </style>
    </defs>
    <g>
        <g>
            <g>
                <polygon class="cls-2" points="0 22.43 38.97 .02 38.97 0 0 22.41 0 22.43 0 22.43"/>
                <polygon class="cls-2" points="38.97 .02 53.04 8.12 53.04 8.09 38.97 0 38.97 .02 38.97 .02"/>
                <polygon class="cls-2" points="14.06 30.58 0 22.43 0 22.41 14.06 30.55 14.06 30.58 14.06 30.58"/>
                <polygon class="cls-2" points="53.04 8.12 14.06 30.58 14.06 30.55 53.04 8.09 53.04 8.12 53.04 8.12"/>
                <polygon class="cls-2" points="53.04 8.09 14.06 30.55 0 22.41 38.97 0 53.04 8.09 53.04 8.09"/>
                <polygon class="cls-2" points="14.06 30.58 53.04 8.12 38.97 .02 0 22.43 14.06 30.58 14.06 30.58"/>
            </g>
            <g>
                <polygon class="cls-2"
                         points="37.82 44.33 76.79 21.79 76.79 21.77 37.82 44.31 37.82 44.33 37.82 44.33"/>
                <polygon class="cls-2"
                         points="76.79 21.79 90.94 29.93 90.94 29.91 76.79 21.77 76.79 21.79 76.79 21.79"/>
                <polygon class="cls-2" points="51.96 52.52 37.82 44.33 37.82 44.31 51.96 52.5 51.96 52.52 51.96 52.52"/>
                <polygon class="cls-2" points="90.94 29.93 51.96 52.52 51.96 52.5 90.94 29.91 90.94 29.93 90.94 29.93"/>
                <polygon class="cls-2" points="90.94 29.91 51.96 52.5 37.82 44.31 76.79 21.77 90.94 29.91 90.94 29.91"/>
                <polygon class="cls-2"
                         points="51.96 52.52 90.94 29.93 76.79 21.79 37.82 44.33 51.96 52.52 51.96 52.52"/>
            </g>
            <g>
                <polygon class="cls-2"
                         points="18.88 33.37 48.97 16.01 48.97 15.99 18.88 33.34 18.88 33.37 18.88 33.37"/>
                <polygon class="cls-2"
                         points="48.97 16.01 63.07 24.14 63.07 24.12 48.97 15.99 48.97 16.01 48.97 16.01"/>
                <polygon class="cls-2"
                         points="32.99 41.53 18.88 33.37 18.88 33.34 32.99 41.51 32.99 41.53 32.99 41.53"/>
                <polygon class="cls-2"
                         points="63.07 24.14 32.99 41.53 32.99 41.51 63.07 24.12 63.07 24.14 63.07 24.14"/>
                <polygon class="cls-2"
                         points="63.07 24.12 32.99 41.51 18.88 33.34 48.97 15.99 63.07 24.12 63.07 24.12"/>
            </g>
        </g>
        <polygon class="cls-1" points="32.99 41.51 32.99 56.65 18.88 48.84 18.88 33.34 32.99 41.51"/>
    </g>
</svg>
