<svg xmlns="http://www.w3.org/2000/svg" id="Capa_2" data-name="Capa 2" viewBox="0 0 90.94 56.65"><defs><style>.cls-2{stroke-width:0;fill:#375dfb}</style></defs><path d="M0 22.43 38.97.02V0L0 22.41v.02zM38.97.02l14.07 8.1v-.03L38.97 0v.02z" class="cls-2"/><path d="M14.06 30.58 0 22.43v-.02l14.06 8.14v.03zM53.04 8.12 14.06 30.58v-.03L53.04 8.09v.03z" class="cls-2"/><path d="M53.04 8.09 14.06 30.55 0 22.41 38.97 0l14.07 8.09z" class="cls-2"/><path d="M14.06 30.58 53.04 8.12 38.97.02 0 22.43l14.06 8.15zM37.82 44.33l38.97-22.54v-.02L37.82 44.31v.02zM76.79 21.79l14.15 8.14v-.02l-14.15-8.14v.02z" class="cls-2"/><path d="m51.96 52.52-14.14-8.19v-.02l14.14 8.19v.02zM90.94 29.93 51.96 52.52v-.02l38.98-22.59v.02z" class="cls-2"/><path d="M90.94 29.91 51.96 52.5l-14.14-8.19 38.97-22.54 14.15 8.14z" class="cls-2"/><path d="m51.96 52.52 38.98-22.59-14.15-8.14-38.97 22.54 14.14 8.19zM18.88 33.37l30.09-17.36v-.02L18.88 33.34v.03z" class="cls-2"/><path d="m48.97 16.01 14.1 8.13v-.02l-14.1-8.13v.02zM32.99 41.53l-14.11-8.16v-.03l14.11 8.17v.02z" class="cls-2"/><path d="M63.07 24.14 32.99 41.53v-.02l30.08-17.39v.02z" class="cls-2"/><path d="M63.07 24.12 32.99 41.51l-14.11-8.17 30.09-17.35 14.1 8.13z" class="cls-2"/><path d="M32.99 41.51v15.14l-14.11-7.81v-15.5l14.11 8.17z" style="stroke-width:0;fill:#1249f9"/></svg>
