<svg xmlns="http://www.w3.org/2000/svg" viewBox="0 0 90.94 56.65">
  <defs>
    <linearGradient id="gradient" x1="7.7" x2="45.27" y1="27.49" y2="3.1" gradientUnits="userSpaceOnUse">
      <stop offset="0" stop-color="#fff" />
      <stop offset="1" stop-color="#fff" />
    </linearGradient>
    <style>.cls-4{stroke-width:0;fill:#fff}</style>
  </defs>
  <path fill="none" d="M0 22.43 38.97.02V0L0 22.41v.02zM38.97.02l14.07 8.1v-.03L38.97 0v.02z" />
  <path fill="none" d="M14.06 30.58 0 22.43v-.02l14.06 8.14v.03zM53.04 8.12 14.06 30.58v-.03L53.04 8.09v.03z" />
  <path fill="none" d="M53.04 8.09 14.06 30.55 0 22.41 38.97 0l14.07 8.09z" />
  <path d="M14.06 30.58 53.04 8.12 38.97.02 0 22.43l14.06 8.15z" style="fill:url(#gradient);stroke-width:0" />
  <path fill="none" d="m37.82 44.33 38.97-22.54v-.02L37.82 44.31v.02zM76.79 21.79l14.15 8.14v-.02l-14.15-8.14v.02z" />
  <path fill="none" d="m51.96 52.52-14.14-8.19v-.02l14.14 8.19v.02zM90.94 29.93 51.96 52.52v-.02l38.98-22.59v.02z" />
  <path fill="none" d="M90.94 29.91 51.96 52.5l-14.14-8.19 38.97-22.54 14.15 8.14z" />
  <path d="m51.96 52.52 38.98-22.59-14.15-8.14-38.97 22.54 14.14 8.19z" class="cls-4" />
  <path fill="none" d="m18.88 33.37 30.09-17.36v-.02L18.88 33.34v.03zM48.97 16.01l14.1 8.13v-.02l-14.1-8.13v.02z" />
  <path fill="none" d="m32.99 41.53-14.11-8.16v-.03l14.11 8.17v.02zM63.07 24.14 32.99 41.53v-.02l30.08-17.39v.02z" />
  <path d="M63.07 24.12 32.99 41.51l-14.11-8.17 30.09-17.35 14.1 8.13z" class="cls-4" />
  <path d="M32.99 41.51v15.14l-14.11-7.81v-15.54l14.11 8.17z" style="fill:#dbdbdb;" />
</svg>
