<?xml version="1.0" standalone="no"?>
<!DOCTYPE svg PUBLIC "-//W3C//DTD SVG 20010904//EN"
 "http://www.w3.org/TR/2001/REC-SVG-20010904/DTD/svg10.dtd">
<svg version="1.0" xmlns="http://www.w3.org/2000/svg"
 width="1456.000000pt" height="1456.000000pt" viewBox="0 0 1456.000000 1456.000000"
 preserveAspectRatio="xMidYMid meet">
<metadata>
Created by potrace 1.14, written by Peter Selinger 2001-2017
</metadata>
<g transform="translate(0.000000,1456.000000) scale(0.100000,-0.100000)"
fill="#000000" stroke="none">
<path d="M6205 11792 c-16 -9 -68 -39 -115 -67 -47 -28 -103 -59 -125 -70 -22
-11 -41 -23 -43 -27 -2 -5 -10 -8 -18 -8 -8 0 -14 -4 -14 -8 0 -4 -12 -13 -27
-20 -16 -7 -37 -18 -48 -25 -11 -6 -115 -66 -230 -132 -116 -65 -211 -123
-213 -127 -2 -4 -8 -8 -13 -8 -10 0 -177 -93 -196 -110 -7 -5 -16 -10 -21 -10
-5 0 -15 -7 -22 -15 -7 -8 -16 -13 -20 -10 -5 3 -11 1 -15 -4 -5 -9 -23 -20
-97 -57 -18 -10 -40 -22 -48 -29 -8 -7 -46 -30 -85 -51 -38 -21 -95 -53 -125
-71 -30 -18 -60 -33 -67 -33 -6 0 -13 -4 -15 -8 -1 -5 -23 -20 -48 -34 -25
-14 -61 -34 -80 -45 -19 -11 -105 -60 -190 -109 -85 -49 -161 -94 -168 -101
-7 -7 -22 -13 -32 -13 -10 0 -20 -4 -22 -8 -1 -5 -99 -64 -216 -130 -117 -67
-230 -133 -252 -147 -22 -14 -42 -25 -45 -25 -3 0 -35 -18 -71 -40 -36 -22
-67 -40 -68 -40 -2 0 -69 -38 -150 -85 -81 -47 -152 -85 -157 -85 -5 0 -9 -4
-9 -8 0 -5 -16 -14 -35 -22 -19 -8 -35 -17 -35 -20 0 -3 -30 -22 -67 -41 -38
-19 -70 -37 -73 -40 -3 -4 -24 -16 -47 -28 -23 -11 -45 -25 -48 -31 -4 -6 -10
-8 -15 -5 -4 3 -13 -2 -20 -10 -7 -8 -16 -15 -21 -15 -5 0 -33 -16 -63 -35
-30 -19 -60 -35 -66 -35 -5 0 -10 -4 -10 -8 0 -4 -12 -13 -27 -19 -16 -7 -55
-28 -88 -47 -33 -20 -69 -41 -80 -46 -11 -6 -38 -22 -60 -35 -22 -14 -53 -32
-70 -41 -16 -8 -39 -21 -50 -27 -42 -26 -247 -143 -273 -156 -15 -8 -29 -17
-32 -20 -3 -3 -23 -15 -45 -26 -22 -11 -42 -22 -45 -26 -5 -5 -59 -36 -150
-85 -19 -11 -36 -22 -38 -26 -2 -5 -7 -8 -12 -8 -5 0 -54 -27 -110 -60 -56
-33 -104 -60 -106 -60 -2 0 -23 -12 -46 -26 -23 -14 -60 -36 -82 -48 -23 -13
-86 -49 -141 -81 -55 -32 -125 -72 -155 -88 -30 -17 -56 -34 -58 -39 -2 -4 -7
-8 -12 -8 -5 0 -84 -44 -177 -97 -92 -53 -180 -103 -195 -110 -15 -8 -30 -19
-33 -24 -4 -5 -11 -7 -16 -4 -5 4 -9 2 -9 -4 0 -5 -10 -13 -22 -17 -13 -3 -34
-14 -48 -24 -24 -17 -78 -48 -150 -86 -19 -11 -37 -22 -40 -25 -3 -3 -32 -21
-65 -39 -98 -54 -109 -60 -140 -81 -16 -10 -38 -22 -47 -25 -26 -9 -22 -18 14
-37 18 -9 60 -33 93 -52 33 -20 79 -45 102 -57 24 -12 43 -26 43 -30 0 -4 4
-8 9 -8 13 0 225 -122 229 -132 2 -4 9 -8 16 -8 6 0 44 -20 84 -45 40 -25 75
-45 78 -45 3 0 30 -16 60 -35 30 -19 57 -35 59 -35 3 0 22 -11 43 -23 20 -13
57 -35 82 -49 25 -14 85 -48 133 -77 49 -28 93 -51 98 -51 5 0 9 -4 9 -9 0 -5
8 -11 18 -15 9 -3 33 -15 52 -26 68 -40 75 -44 83 -42 4 1 7 -2 7 -8 0 -5 17
-17 37 -26 21 -10 44 -22 52 -28 7 -6 42 -27 76 -46 35 -19 111 -63 171 -97
59 -35 111 -63 116 -63 4 0 8 -4 8 -10 0 -5 5 -10 10 -10 6 0 40 -18 76 -40
36 -22 67 -40 69 -40 2 0 50 -28 107 -61 190 -114 205 -121 223 -103 8 9 21
17 28 18 11 2 23 8 109 63 21 12 40 23 43 23 2 0 34 18 70 40 36 22 67 40 70
40 4 0 108 60 155 90 8 5 31 17 50 27 19 9 37 20 40 23 3 4 17 13 32 21 15 8
64 35 109 62 45 26 86 47 90 47 5 0 9 4 9 9 0 5 8 11 18 14 17 6 105 54 149
83 12 7 39 23 60 35 21 12 128 73 238 137 110 63 214 123 232 133 17 10 49 29
70 42 21 13 45 27 53 30 8 4 33 18 55 30 98 57 123 71 165 95 25 14 57 33 72
43 14 11 28 19 31 19 3 0 40 20 81 45 42 25 81 45 86 45 6 0 10 4 10 8 0 4 12
13 28 20 15 7 45 23 67 36 200 117 359 206 366 206 5 0 9 4 9 9 0 5 10 13 23
17 12 4 24 9 27 13 8 10 82 51 113 62 15 6 27 15 27 20 0 5 5 9 10 9 6 0 35
15 65 34 29 19 56 32 59 29 3 -4 6 -2 6 4 0 6 8 13 18 17 9 3 35 16 57 29 124
73 244 143 275 160 61 34 204 117 220 127 8 6 31 18 50 28 19 9 37 20 40 23 3
3 64 39 135 79 176 101 186 107 215 122 14 7 27 15 30 18 5 5 40 25 100 57 19
10 37 20 40 23 3 3 16 11 29 18 67 38 99 56 126 73 17 10 57 33 90 52 33 18
137 78 230 132 94 54 186 107 205 118 19 11 49 28 65 38 17 10 44 25 60 34 17
8 44 24 60 35 17 11 39 24 51 29 11 5 51 28 88 50 36 23 70 41 75 41 5 0 16 6
23 13 7 7 34 23 61 37 26 14 47 28 47 32 0 5 6 8 13 8 7 0 33 13 58 28 24 16
69 41 99 58 30 16 57 31 60 34 3 4 56 35 119 71 161 90 190 107 245 141 27 16
58 34 70 39 12 5 35 18 51 29 17 10 50 30 75 43 78 42 110 62 110 68 0 4 -7
12 -15 19 -8 7 -15 9 -15 6 0 -4 -19 6 -42 22 -24 16 -65 41 -93 56 -53 28
-88 48 -145 82 -19 12 -55 33 -80 47 -66 36 -171 97 -205 118 -16 10 -41 24
-55 31 -14 7 -28 16 -31 21 -3 5 -10 9 -15 9 -5 0 -58 29 -117 64 -60 35 -110
64 -113 64 -2 0 -33 18 -69 40 -36 22 -70 40 -75 40 -6 0 -10 4 -10 8 0 4 -16
14 -35 21 -19 7 -35 17 -35 22 0 5 -6 9 -14 9 -8 0 -22 8 -32 18 -10 9 -20 16
-23 16 -6 -2 -30 11 -191 105 -52 30 -97 55 -100 55 -3 0 -27 15 -55 33 -27
18 -55 33 -62 33 -7 0 -13 4 -13 9 0 5 -8 11 -17 15 -10 3 -32 13 -48 23 -17
10 -84 49 -150 87 -66 38 -160 92 -210 121 -96 56 -184 105 -188 105 -1 0 -15
-8 -32 -18z"/>
<path d="M7799 9228 c-19 -13 -47 -30 -64 -38 -16 -8 -34 -19 -40 -23 -11 -9
-294 -171 -370 -212 -27 -15 -62 -36 -77 -47 -16 -11 -28 -16 -28 -11 0 4 -4
3 -8 -3 -4 -6 -50 -34 -102 -64 -52 -30 -98 -58 -102 -64 -4 -6 -8 -7 -8 -3 0
4 -17 -4 -37 -18 -21 -14 -43 -25 -50 -25 -7 0 -13 -4 -13 -10 0 -5 -7 -10
-15 -10 -8 0 -15 -4 -15 -10 0 -5 -5 -10 -11 -10 -6 0 -49 -22 -96 -50 -47
-27 -89 -50 -94 -50 -5 0 -9 -3 -9 -7 0 -5 -19 -17 -43 -28 -23 -11 -44 -22
-47 -25 -9 -11 -240 -140 -249 -140 -5 0 -11 -4 -13 -8 -1 -5 -39 -28 -83 -52
-44 -24 -82 -46 -85 -49 -6 -7 -82 -49 -117 -66 -13 -5 -23 -13 -23 -17 0 -5
-6 -8 -14 -8 -7 0 -19 -7 -26 -15 -7 -9 -15 -13 -18 -10 -3 3 -12 -1 -21 -9
-9 -7 -43 -28 -76 -46 -33 -17 -64 -35 -70 -40 -5 -4 -30 -19 -55 -33 -55 -30
-174 -99 -430 -247 -107 -62 -211 -121 -230 -132 -19 -11 -53 -30 -75 -43 -22
-14 -47 -28 -55 -32 -8 -4 -43 -24 -78 -45 -34 -21 -64 -38 -67 -38 -3 0 -29
-16 -59 -35 -30 -19 -59 -35 -63 -35 -4 0 -30 -16 -58 -34 -27 -19 -53 -32
-57 -29 -5 2 -8 -1 -8 -6 0 -6 -7 -11 -15 -11 -8 0 -15 -4 -15 -8 0 -4 -12
-13 -27 -19 -16 -7 -48 -24 -73 -39 -25 -15 -60 -35 -77 -45 -125 -72 -205
-117 -223 -128 -57 -34 -472 -272 -500 -287 -19 -11 -37 -22 -40 -25 -3 -4
-25 -17 -50 -29 -25 -12 -47 -25 -50 -29 -3 -3 -35 -22 -72 -41 -37 -19 -68
-38 -68 -41 0 -3 -16 -11 -35 -19 -19 -8 -35 -17 -35 -22 0 -4 -4 -8 -8 -8 -4
0 -58 -28 -118 -63 l-111 -63 0 -1243 0 -1243 26 -11 c14 -6 28 -14 31 -18 3
-3 35 -21 73 -39 37 -19 67 -37 67 -42 0 -4 9 -8 20 -8 11 0 20 -3 20 -7 0 -5
10 -13 23 -18 54 -26 152 -81 155 -87 2 -5 7 -8 12 -8 7 0 89 -44 220 -118 25
-14 74 -41 110 -60 36 -19 75 -41 87 -48 29 -18 91 -52 173 -96 72 -39 132
-73 170 -97 14 -8 27 -16 30 -16 5 -1 85 -43 112 -60 9 -5 36 -21 60 -34 85
-46 155 -85 285 -157 72 -41 137 -74 142 -74 6 0 11 -4 11 -10 0 -5 5 -10 11
-10 6 0 24 -9 40 -21 16 -11 29 -18 29 -15 0 4 19 -6 43 -21 43 -27 93 -55
207 -114 35 -19 71 -40 78 -47 8 -7 17 -11 20 -8 9 10 8 146 -2 146 -5 0 -5 5
1 13 4 6 7 75 6 152 -2 77 -3 145 -3 150 0 6 0 75 0 155 0 80 0 152 0 160 0 8
0 80 0 160 0 80 0 152 0 160 0 8 0 80 0 160 0 80 0 154 0 165 0 11 0 72 1 135
0 63 0 124 -1 135 0 11 1 46 2 78 2 31 0 57 -5 57 -4 0 -5 5 -1 11 4 7 6 31 5
55 -2 54 -2 47 1 172 2 56 -1 102 -5 102 -5 0 -5 6 0 13 9 16 11 97 2 118 -4
8 -4 21 1 28 4 8 4 27 0 42 -5 18 -5 29 1 29 6 0 8 4 5 9 -5 8 44 48 52 43 1
-2 10 4 18 13 9 8 21 15 29 15 7 0 15 5 17 11 2 5 10 11 19 12 8 2 28 13 43
25 16 12 32 19 37 16 5 -3 9 -1 9 4 0 5 21 20 48 33 26 13 49 27 52 30 3 4 29
19 58 35 29 16 61 34 70 39 10 6 71 41 137 79 66 39 123 75 127 80 4 6 8 8 8
4 0 -4 29 10 65 32 36 22 70 40 75 40 6 0 10 4 10 9 0 5 11 12 24 15 14 3 31
12 38 19 7 6 35 23 61 37 26 13 47 29 47 34 0 5 3 6 7 3 3 -4 21 4 38 18 18
13 35 22 37 19 3 -2 11 2 18 11 7 8 16 15 21 15 5 0 26 11 47 24 30 19 361
211 478 277 17 9 42 23 55 31 13 7 26 15 29 18 3 3 26 17 53 30 26 14 47 29
47 33 0 5 4 6 9 2 5 -3 16 2 24 10 9 8 18 15 22 15 3 0 31 16 61 35 30 19 58
35 63 35 4 0 19 9 33 19 14 11 31 21 39 23 13 3 20 7 53 36 9 7 19 13 23 13
14 2 38 12 43 18 4 6 107 66 206 121 17 10 42 24 55 32 13 7 27 18 31 23 4 6
8 6 8 2 0 -4 20 6 44 23 25 16 48 30 51 30 4 0 18 9 32 20 14 11 29 17 34 14
5 -3 9 0 9 5 0 6 7 11 15 11 8 0 15 4 15 9 0 5 12 14 28 21 36 15 94 47 108
59 7 5 34 21 60 36 27 14 67 37 89 51 22 13 47 27 55 31 8 4 31 16 50 28 33
21 61 36 175 101 28 15 52 32 53 36 2 4 10 8 19 8 8 0 21 6 28 13 34 30 43 35
49 29 4 -3 10 -2 14 4 6 10 45 34 132 80 19 11 37 21 40 24 3 3 19 12 35 20
17 8 32 17 35 20 3 3 41 26 85 51 44 25 136 78 204 117 69 40 126 72 128 72 3
0 23 13 46 28 23 16 57 35 75 43 17 8 32 17 32 21 0 5 9 8 20 8 11 0 20 4 20
9 0 5 25 22 55 36 30 15 55 32 55 37 0 5 4 7 9 4 5 -3 14 1 21 9 7 8 19 15 26
15 8 0 14 5 14 10 0 6 3 9 8 8 4 -1 41 17 82 41 41 24 108 63 148 86 l72 42
-24 17 c-14 9 -28 16 -31 16 -3 0 -31 16 -61 35 -30 19 -56 35 -58 35 -3 0
-37 19 -78 43 -40 24 -94 55 -119 69 -85 48 -94 53 -99 59 -3 3 -20 12 -37 20
-18 8 -33 17 -33 21 0 5 -6 8 -14 8 -7 0 -25 9 -40 21 -14 11 -26 17 -26 12 0
-4 -4 -3 -8 3 -4 6 -27 22 -51 35 -61 33 -82 46 -199 114 -57 33 -115 66 -130
74 -15 8 -98 56 -186 108 -87 51 -162 93 -167 93 -4 0 -9 3 -11 8 -1 4 -23 18
-48 31 -103 54 -125 66 -130 72 -5 6 -111 66 -147 83 -13 6 -23 14 -23 19 0 4
-4 7 -9 7 -5 0 -55 27 -111 60 -56 33 -103 60 -105 60 -2 0 -49 27 -105 60
-56 33 -105 60 -110 60 -5 0 -10 3 -12 8 -3 7 -81 52 -90 52 -3 0 -20 -10 -39
-22z"/>
<path d="M12258 8307 c-16 -6 -28 -14 -28 -19 0 -4 -4 -8 -9 -8 -8 0 -283
-158 -429 -246 -40 -24 -75 -44 -77 -44 -3 0 -34 -18 -70 -40 -36 -22 -67 -40
-69 -40 -2 0 -66 -37 -142 -82 -76 -45 -154 -89 -171 -97 -18 -8 -33 -19 -33
-23 0 -4 -4 -8 -9 -8 -5 0 -42 -19 -83 -43 -70 -42 -113 -67 -215 -123 -27
-15 -60 -35 -75 -45 -14 -11 -28 -19 -31 -19 -10 0 -132 -75 -135 -82 -2 -5
-7 -6 -12 -3 -4 3 -13 -2 -20 -10 -7 -8 -16 -15 -21 -15 -5 0 -37 -17 -71 -38
-35 -21 -70 -41 -78 -45 -8 -4 -31 -17 -50 -28 -32 -20 -95 -56 -145 -83 -11
-6 -22 -13 -25 -16 -3 -3 -16 -11 -29 -18 -13 -8 -38 -22 -55 -31 -17 -10 -87
-50 -154 -90 -68 -39 -127 -71 -132 -71 -6 0 -10 -4 -10 -10 0 -5 -6 -10 -14
-10 -7 0 -19 -7 -26 -15 -7 -8 -16 -12 -21 -9 -5 3 -9 2 -9 -3 0 -4 -10 -13
-23 -19 -12 -6 -62 -34 -111 -62 -49 -29 -93 -52 -97 -52 -5 0 -9 -4 -9 -9 0
-5 -12 -14 -27 -20 -16 -6 -46 -22 -68 -36 -22 -14 -47 -28 -55 -32 -8 -4 -43
-24 -78 -45 -34 -21 -66 -38 -71 -38 -5 0 -11 -3 -13 -7 -1 -5 -21 -17 -43
-28 -22 -11 -42 -22 -45 -25 -3 -4 -36 -24 -75 -45 -38 -21 -71 -42 -73 -47
-2 -4 -9 -8 -16 -8 -7 0 -30 -11 -50 -25 -20 -13 -36 -21 -36 -17 0 4 -4 3 -8
-3 -4 -5 -18 -16 -32 -24 -14 -8 -73 -42 -131 -76 -58 -34 -112 -65 -120 -68
-8 -4 -27 -16 -44 -26 -76 -47 -209 -121 -216 -121 -5 0 -9 -4 -9 -8 0 -4 -12
-13 -27 -20 -16 -6 -41 -20 -58 -30 -16 -10 -57 -34 -90 -52 -33 -18 -68 -39
-77 -48 -10 -8 -18 -11 -18 -6 0 5 -4 4 -8 -1 -4 -6 -54 -38 -111 -70 -57 -33
-125 -72 -150 -87 -25 -15 -70 -40 -98 -55 -29 -15 -53 -31 -53 -35 0 -4 -5
-8 -10 -8 -6 0 -88 -45 -181 -100 -94 -55 -173 -100 -176 -100 -3 0 -17 -8
-31 -19 -28 -19 -131 -77 -169 -95 -13 -6 -23 -14 -23 -18 0 -5 -4 -8 -9 -8
-5 0 -42 -19 -83 -43 -40 -24 -93 -55 -118 -69 -121 -67 -215 -124 -218 -130
-2 -5 -8 -8 -13 -8 -9 0 -73 -36 -229 -129 -19 -11 -51 -29 -70 -39 -19 -10
-78 -44 -131 -75 -53 -32 -101 -57 -106 -57 -6 0 -14 -7 -17 -16 -3 -8 -10
-12 -16 -9 -5 3 -10 0 -10 -7 0 -8 19 -24 43 -36 23 -12 56 -30 72 -40 17 -9
62 -35 100 -57 39 -21 72 -41 75 -44 3 -3 25 -17 50 -30 25 -13 53 -31 63 -39
9 -8 17 -11 17 -6 0 5 4 5 8 -1 7 -10 14 -14 101 -63 25 -14 78 -45 118 -69
39 -23 76 -43 82 -43 6 0 11 -4 11 -10 0 -5 4 -10 10 -10 5 0 33 -14 62 -31
49 -30 78 -46 139 -81 13 -7 26 -15 29 -18 3 -3 23 -14 45 -25 22 -11 42 -23
45 -26 3 -3 25 -17 49 -30 24 -13 56 -31 70 -39 15 -8 58 -33 96 -54 39 -22
72 -42 75 -45 3 -3 14 -11 25 -17 50 -27 113 -63 145 -83 19 -11 42 -24 50
-28 8 -3 39 -21 68 -40 29 -18 54 -33 57 -33 2 0 92 -52 201 -115 108 -63 200
-115 205 -115 5 0 9 -4 9 -10 0 -5 4 -10 9 -10 6 0 37 -16 70 -35 l59 -35 59
34 c32 18 74 42 93 52 19 10 37 21 40 24 3 3 14 10 25 16 106 57 579 332 592
344 7 5 15 10 18 10 3 0 102 56 220 125 119 69 237 137 263 152 26 14 49 30
50 35 2 4 8 8 13 8 5 0 63 31 128 69 66 38 145 84 176 101 30 17 77 44 103 60
26 16 72 43 102 60 30 16 73 41 95 55 22 14 54 32 70 40 17 9 37 20 45 25 62
39 222 132 280 162 14 7 27 15 30 18 5 6 146 88 208 121 18 9 39 23 47 29 8 7
15 9 15 4 0 -5 4 -4 8 2 10 15 112 75 112 66 0 -4 4 -2 8 4 4 6 34 26 67 44
33 18 67 38 75 46 8 7 26 17 40 23 14 6 43 22 65 36 22 14 46 28 54 32 8 3 64
36 125 71 61 36 124 72 141 81 16 9 32 18 35 21 3 3 16 11 30 19 14 8 48 27
75 43 28 16 61 34 75 41 14 6 27 14 30 18 3 3 25 16 50 30 25 13 51 30 58 37
7 6 18 12 23 12 5 0 33 16 64 35 30 20 55 32 55 28 0 -4 4 -3 8 3 6 9 174 109
257 153 17 9 32 19 33 24 2 4 7 7 12 7 4 0 49 25 99 55 51 30 94 55 96 55 3 0
33 17 67 38 35 21 70 41 78 45 8 4 29 16 45 26 17 10 59 35 95 56 36 21 80 46
98 56 17 11 47 27 65 38 17 10 61 36 97 57 113 67 145 85 163 91 9 3 17 9 17
14 0 5 4 9 9 9 5 0 75 39 157 86 306 178 302 176 389 224 33 18 66 39 73 47 7
7 17 13 22 13 5 0 49 24 97 53 49 30 93 56 99 58 5 2 76 42 156 89 142 82 146
85 128 102 -11 10 -21 18 -24 18 -3 0 -53 28 -113 63 -59 35 -115 66 -123 70
-8 4 -24 13 -35 20 -61 37 -147 87 -150 87 -1 0 -33 18 -69 40 -36 22 -70 40
-76 40 -5 0 -10 4 -10 9 0 5 -8 11 -17 14 -18 6 -58 28 -148 82 -78 46 -128
74 -155 88 -14 6 -27 14 -30 17 -4 4 -38 23 -95 54 -11 6 -22 13 -25 16 -10
10 -45 30 -82 47 -21 10 -38 21 -38 25 0 5 -5 8 -11 8 -6 0 -38 16 -72 36 -34
20 -78 46 -97 56 -19 11 -60 35 -91 54 -31 19 -60 34 -63 34 -4 0 -12 5 -19
10 -18 16 -169 100 -179 100 -4 0 -8 5 -8 10 0 6 -4 10 -9 10 -5 0 -44 20 -85
45 -42 25 -81 45 -86 45 -6 0 -10 3 -10 8 0 4 -15 13 -32 21 -18 8 -41 21 -50
29 -10 8 -18 11 -18 6 0 -5 -4 -4 -8 2 -8 12 -150 94 -162 94 -5 0 -10 4 -12
9 -5 16 -51 20 -80 8z"/>
</g>
</svg>
