<svg width="64" height="64" viewBox="0 0 64 64" fill="none" xmlns="http://www.w3.org/2000/svg">
    <g clip-path="url(#clip0_1_11854)">
        <path
            d="M32 0C21.8966 0 12.8929 4.687 7.02832 12H56.9717C51.1071 4.687 42.1034 0 32 0Z"
            fill="#007ACC"
            style="fill: #007acc; fill: color(display-p3 0 0.4784 0.8); fill-opacity: 1"
        />
        <path
            d="M32 64C42.1034 64 51.1071 59.313 56.9717 52H7.02832C12.8929 59.313 21.8966 64 32 64Z"
            fill="#007ACC"
            style="fill: #007acc; fill: color(display-p3 0 0.4784 0.8); fill-opacity: 1"
        />
        <path
            d="M56.9716 12H7.0282C6.0186 13.2588 5.1042 14.5957 4.2915 16H59.7082C58.8955 14.5957 57.9812 13.2588 56.9716 12Z"
            fill="#FFD400"
            style="fill: #ffd400; fill: color(display-p3 1 0.8314 0); fill-opacity: 1"
        />
        <path
            d="M7.02835 52H56.9717C57.9813 50.7412 58.8958 49.4042 59.7085 48H4.29175C5.10445 49.4042 6.01875 50.7412 7.02835 52Z"
            fill="#FFD400"
            style="fill: #ffd400; fill: color(display-p3 1 0.8314 0); fill-opacity: 1"
        />
        <path
            d="M59.7083 16H4.2917C1.5671 20.7079 0 26.1693 0 32C0 37.8307 1.5671 43.2921 4.2917 48H59.7084C62.4329 43.2921 64.0001 37.8307 64.0001 32C64.0001 26.1693 62.4329 20.7079 59.7083 16ZM58.6667 32H57.3334V34.6667L56.0001 36H54.6668L53.3335 34.6667V32H47.9984C47.9989 32.0011 47.9996 32.0021 48.0002 32.0031C45.4221 36.8514 40.4512 40.3646 34.5489 41.1593C33.7164 41.2714 32.8656 41.3302 32.0002 41.3302C24.9986 41.3302 18.9419 37.5352 16.0002 32.0031C16.0008 32.0021 16.0015 32.0011 16.002 32H12.0002V34.6667L10.6669 36H9.3336L8.0003 34.6667V32H6.667V30.6667H16.804C17.1067 30.2072 17.4307 29.7621 17.7771 29.3334H10.6669V28.0001H18.9737C19.441 27.5309 19.9323 27.0833 20.453 26.6668H14.6669V25.3335H22.3664C25.1472 23.6497 28.451 22.6699 32.0002 22.6699C35.5494 22.6699 38.8531 23.6497 41.634 25.3335H54.6669V26.6668H43.5474C44.0682 27.0833 44.5595 27.5309 45.0268 28.0001H50.6669V29.3334H46.2234C46.5698 29.7621 46.8938 30.2073 47.1965 30.6667H58.667L58.6667 32Z"
            fill="#F0263C"
            style="fill: #f0263c; fill: color(display-p3 0.9412 0.149 0.2353); fill-opacity: 1"
        />
        <path
            d="M54.6667 26.6667V25.3334H41.6338C42.3031 25.7387 42.9427 26.1833 43.5471 26.6667H54.6667Z"
            fill="#FFD400"
            style="fill: #ffd400; fill: color(display-p3 1 0.8314 0); fill-opacity: 1"
        />
        <path
            d="M14.6667 25.3333V26.6666H20.4528C21.0573 26.1832 21.6969 25.7385 22.3662 25.3333H14.6667Z"
            fill="#FFD400"
            style="fill: #ffd400; fill: color(display-p3 1 0.8314 0); fill-opacity: 1"
        />
        <path
            d="M6.66675 30.6667V32H16.0018C16.2457 31.5417 16.5184 31.1001 16.8037 30.6667H6.66675Z"
            fill="#FFD400"
            style="fill: #ffd400; fill: color(display-p3 1 0.8314 0); fill-opacity: 1"
        />
        <path
            d="M47.9983 32H58.6668V30.6667H47.1963C47.4817 31.1001 47.7544 31.5417 47.9983 32Z"
            fill="#FFD400"
            style="fill: #ffd400; fill: color(display-p3 1 0.8314 0); fill-opacity: 1"
        />
        <path
            d="M18.9735 28H10.6667V29.3333H17.7769C18.1518 28.8693 18.5508 28.4245 18.9735 28Z"
            fill="#FFD400"
            style="fill: #ffd400; fill: color(display-p3 1 0.8314 0); fill-opacity: 1"
        />
        <path
            d="M46.2232 29.3333H50.6667V28H45.0266C45.4493 28.4246 45.8483 28.8693 46.2232 29.3333Z"
            fill="#FFD400"
            style="fill: #ffd400; fill: color(display-p3 1 0.8314 0); fill-opacity: 1"
        />
        <path
            d="M33.3333 34.6698V30.6698L30.6666 26.6698V25.3365L31.9999 22.6698C28.4507 22.6698 25.1469 23.6496 22.3661 25.3334C21.6968 25.7387 21.0572 26.1833 20.4527 26.6667C19.9319 27.0832 19.4407 27.5308 18.9734 28C18.5507 28.4246 18.1517 28.8693 17.7768 29.3333C17.4304 29.762 17.1063 30.2072 16.8037 30.6666C16.5184 31.1 16.2457 31.5416 16.0018 31.9999C16.0013 32.001 16.0006 32.002 16 32.003C18.9417 37.5351 24.9984 41.3301 32 41.3301C32.8654 41.3301 33.7161 41.2713 34.5487 41.1592L32 37.3363L33.3333 34.6698ZM21.3333 28.0101H29.3333V30.6667H21.3333V28.0101ZM29.3333 35.995H21.3333V33.3384H29.3333V35.995Z"
            fill="black"
            style="fill: black; fill-opacity: 1"
        />
        <path
            d="M46.2231 29.3333C45.8482 28.8693 45.4492 28.4245 45.0265 28C44.5592 27.5308 44.0678 27.0832 43.5471 26.6667C42.9427 26.1833 42.303 25.7386 41.6338 25.3334C38.853 23.6496 35.5492 22.6698 32 22.6698L30.6667 25.3365V26.6698L33.3334 30.6698V34.6698L32.0001 37.3365L34.5488 41.1594C40.4511 40.3646 45.422 36.8515 48.0001 32.0032C47.9995 32.0022 47.9988 32.0012 47.9983 32.0001C47.7544 31.5418 47.4817 31.1002 47.1963 30.6668C46.8936 30.2073 46.5696 29.762 46.2231 29.3333ZM42.6667 35.995H34.6667V33.3384H42.6667V35.995ZM34.6667 28.0101H42.6667V30.6667H34.6667V28.0101Z"
            fill="white"
            style="fill: white; fill-opacity: 1"
        />
        <path d="M29.3333 28.0101H21.3333V30.6667H29.3333V28.0101Z" fill="white" style="fill: white; fill-opacity: 1" />
        <path d="M29.3333 33.3384H21.3333V35.995H29.3333V33.3384Z" fill="white" style="fill: white; fill-opacity: 1" />
        <path d="M42.6667 28.0101H34.6667V30.6667H42.6667V28.0101Z" fill="black" style="fill: black; fill-opacity: 1" />
        <path d="M42.6667 33.3384H34.6667V35.995H42.6667V33.3384Z" fill="black" style="fill: black; fill-opacity: 1" />
        <path
            d="M8 34.6667L9.3333 36H10.6667L12 34.6667V32H8V34.6667Z"
            fill="black"
            style="fill: black; fill-opacity: 1"
        />
        <path
            d="M53.3333 34.6667L54.6666 36H56L57.3333 34.6667V32H53.3333V34.6667Z"
            fill="black"
            style="fill: black; fill-opacity: 1"
        />
    </g>
    <defs>
        <clipPath id="clip0_1_11854">
            <rect width="64" height="64" fill="white" style="fill: white; fill-opacity: 1" />
        </clipPath>
    </defs>
</svg>
